<svg width="18" height="24" viewBox="0 0 18 24" fill="none" xmlns="http://www.w3.org/2000/svg">
<path d="M0 8.61004V8.55904C0 7.52104 0.199 6.53004 0.56 5.62104L0.541 5.67504C0.884862 4.78664 1.39268 3.9708 2.038 3.27004L2.033 3.27504C3.3296 1.88648 4.98824 0.887624 6.822 0.39104L6.893 0.37504C7.84042 0.123497 8.81676 -0.00258008 9.797 4.00093e-05H9.808H9.88C11.396 4.00093e-05 12.83 0.35504 14.102 0.98504L14.046 0.96004C15.3278 1.58458 16.4212 2.53758 17.215 3.72204L17.233 3.75104C18.0364 4.94523 18.4634 6.35278 18.459 7.79204L18.458 7.89504V7.89004V7.90604C18.458 8.86004 18.358 9.79104 18.168 10.688L18.183 10.601C17.9963 11.5075 17.6959 12.3868 17.289 13.218L17.318 13.154C16.9434 13.9431 16.456 14.6734 15.871 15.322L15.878 15.314C15.3005 15.9373 14.6028 16.4374 13.827 16.784L13.787 16.8C12.9525 17.1693 12.0496 17.3588 11.137 17.356H11.057H11.061C10.3759 17.3506 9.70109 17.1888 9.088 16.883L9.114 16.895C8.52946 16.6395 8.04547 16.1984 7.737 15.64L7.729 15.625C7.633 15.9984 7.49967 16.539 7.329 17.247C7.15833 17.955 7.04533 18.4117 6.99 18.617C6.93667 18.8237 6.838 19.165 6.694 19.641C6.582 20.041 6.454 20.381 6.301 20.707L6.319 20.665L5.857 21.567C5.633 22.004 5.413 22.371 5.171 22.721L5.193 22.687C4.95233 23.0377 4.65433 23.4534 4.299 23.934L4.097 24.006L3.967 23.862C3.823 22.352 3.751 21.4484 3.751 21.151C3.765 20.089 3.87433 19.0614 4.079 18.068L4.061 18.173C4.26767 17.0724 4.58767 15.6904 5.021 14.027C5.45433 12.3637 5.70433 11.3877 5.771 11.099C5.43026 10.3293 5.27247 9.49102 5.31 8.65004V8.66104C5.31 7.81004 5.589 7.02504 6.06 6.39104L6.053 6.40104C6.25612 6.07949 6.53711 5.8144 6.86994 5.63033C7.20277 5.44626 7.57667 5.34917 7.957 5.34804C7.98433 5.34671 8.01433 5.34604 8.047 5.34604C8.558 5.34604 9.016 5.57204 9.326 5.93004L9.328 5.93204C9.634 6.31004 9.82 6.79604 9.82 7.32604L9.818 7.41504V7.41104C9.75081 8.37867 9.52935 9.32933 9.162 10.227L9.184 10.166C8.83709 11.0164 8.6239 11.9154 8.552 12.831L8.55 12.863L8.549 12.911C8.549 13.489 8.799 14.009 9.197 14.368L9.199 14.37C9.598 14.741 10.134 14.969 10.724 14.969L10.774 14.968H10.772H10.796C11.326 14.968 11.824 14.834 12.26 14.599L12.244 14.607C12.6874 14.3715 13.0723 14.0393 13.37 13.635L13.376 13.626C13.668 13.23 13.937 12.78 14.163 12.306L14.184 12.256C14.403 11.801 14.592 11.27 14.721 10.716L14.732 10.663C14.838 10.238 14.94 9.69504 15.012 9.14304L15.021 9.06304C15.079 8.63404 15.113 8.13604 15.115 7.63004V7.62804C15.156 6.90446 15.0361 6.18078 14.7637 5.50915C14.4914 4.83752 14.0734 4.23467 13.54 3.74404L13.537 3.74104C12.3847 2.77292 10.9092 2.27575 9.406 2.34904H9.419C8.5316 2.32259 7.6479 2.47437 6.82018 2.79539C5.99245 3.11641 5.23751 3.60017 4.6 4.21804L4.602 4.21604C3.96513 4.82764 3.46394 5.56629 3.13093 6.38408C2.79793 7.20186 2.64055 8.08051 2.669 8.96304V8.95304V8.96504C2.669 9.39804 2.735 9.81504 2.857 10.208L2.849 10.178C2.951 10.535 3.084 10.847 3.25 11.136L3.239 11.115C3.37833 11.3457 3.50833 11.5644 3.629 11.771C3.717 11.896 3.78 12.044 3.808 12.204L3.809 12.211C3.79157 12.5796 3.71597 12.9431 3.585 13.288L3.593 13.264C3.449 13.6967 3.271 13.913 3.059 13.913C3.03967 13.913 2.958 13.8987 2.814 13.87C2.31629 13.7201 1.86665 13.4422 1.51 13.064L1.509 13.062C1.13679 12.6775 0.84149 12.2254 0.639 11.73L0.629 11.702C0.430092 11.2173 0.276437 10.7151 0.17 10.202L0.16 10.144C0.0551896 9.63975 0.0019157 9.12611 0.001 8.61104L0 8.61004Z" fill="#F0F0F0"/>
</svg>
