<svg width="89" height="89" viewBox="0 0 89 89" fill="none" xmlns="http://www.w3.org/2000/svg">
<path d="M88.4782 67.0156C87.4485 65.9188 83.8129 62.6758 77.1296 58.3852C70.3969 54.0572 65.4317 51.3586 64.0075 50.7293C63.8819 50.6737 63.7436 50.6533 63.6074 50.6703C63.4711 50.6873 63.3421 50.7412 63.2342 50.826C60.94 52.6152 57.0775 55.9017 56.8704 56.0792C55.5329 57.2253 55.5329 57.2253 54.4381 56.8683C52.5128 56.237 46.5317 53.061 41.3199 47.8374C36.1082 42.6138 32.7685 36.4848 32.1372 34.5615C31.7762 33.4647 31.7762 33.4647 32.9263 32.1272C33.1038 31.9201 36.3922 28.0576 38.1814 25.7654C38.2663 25.6574 38.3201 25.5284 38.3372 25.3922C38.3542 25.2559 38.3338 25.1176 38.2781 24.9921C37.6488 23.5659 34.9502 18.6027 30.6222 11.87C26.3258 5.18861 23.0867 1.553 21.9899 0.523277C21.8892 0.4283 21.7648 0.362228 21.6298 0.332024C21.4947 0.301821 21.354 0.308603 21.2225 0.351657C17.3886 1.66922 13.6895 3.35034 10.1756 5.37207C6.7835 7.34398 3.57204 9.61147 0.57866 12.1481C0.474168 12.237 0.395828 12.3526 0.352041 12.4825C0.308253 12.6125 0.300671 12.752 0.330106 12.8859C0.742391 14.8073 2.71307 22.8281 8.82831 33.9381C15.0678 45.2769 19.3919 51.0864 28.5549 60.2178C37.7179 69.3492 43.7108 73.9337 55.0615 80.1732C66.1715 86.2884 74.1962 88.2611 76.1136 88.6694C76.2479 88.6986 76.3875 88.6909 76.5178 88.6471C76.648 88.6034 76.764 88.5252 76.8534 88.4209C79.3896 85.4276 81.6565 82.2161 83.6275 78.8239C85.6489 75.3099 87.33 71.6108 88.6479 67.777C88.6901 67.6465 88.6966 67.5071 88.6667 67.3732C88.6369 67.2393 88.5718 67.1159 88.4782 67.0156Z" fill="#79B900"/>
</svg>
