<svg width="89" height="89" viewBox="0 0 89 89" fill="none" xmlns="http://www.w3.org/2000/svg">
<path fill-rule="evenodd" clip-rule="evenodd" d="M67.4886 60.3542C73.3079 52.8518 76.0504 43.4143 75.1583 33.9617C74.2662 24.509 69.8065 15.7512 62.6864 9.47002C55.5663 3.18883 46.3208 -0.143948 36.8306 0.149717C27.3405 0.443381 18.3187 4.34142 11.6006 11.0508C4.87667 17.7649 0.96588 26.7902 0.665198 36.2875C0.364516 45.7849 3.69657 55.0395 9.98234 62.1654C16.2681 69.2913 25.0345 73.7523 34.4951 74.6392C43.9558 75.5262 53.3986 72.7723 60.8993 66.9388L61.0999 67.1488L80.8959 86.9495C81.3295 87.3831 81.8443 87.727 82.4108 87.9617C82.9773 88.1963 83.5844 88.3171 84.1976 88.3171C84.8108 88.3171 85.418 88.1963 85.9845 87.9617C86.551 87.727 87.0657 87.3831 87.4993 86.9495C87.9329 86.5159 88.2768 86.0012 88.5114 85.4347C88.7461 84.8682 88.8669 84.261 88.8669 83.6478C88.8669 83.0346 88.7461 82.4275 88.5114 81.861C88.2768 81.2945 87.9329 80.7797 87.4993 80.3462L67.6986 60.5502L67.4886 60.3542ZM57.8006 17.6542C60.4354 20.2464 62.5309 23.3347 63.9662 26.7408C65.4015 30.1469 66.1482 33.8036 66.1633 37.4997C66.1783 41.1959 65.4614 44.8585 64.0539 48.2762C62.6464 51.6939 60.5761 54.7991 57.9625 57.4127C55.3489 60.0263 52.2437 62.0966 48.826 63.5041C45.4082 64.9116 41.7457 65.6286 38.0495 65.6135C34.3533 65.5985 30.6967 64.8517 27.2906 63.4164C23.8844 61.9811 20.7962 59.8856 18.2039 57.2508C13.0236 51.9854 10.1337 44.8862 10.1637 37.4997C10.1938 30.1132 13.1414 23.0378 18.3645 17.8147C23.5876 12.5917 30.663 9.64404 38.0495 9.61396C45.436 9.58389 52.5352 12.4738 57.8006 17.6542Z" fill="#79B900"/>
</svg>
