<svg width="65" height="65" viewBox="0 0 65 65" fill="none" xmlns="http://www.w3.org/2000/svg">
<path d="M47.0629 29.4083L24.6736 18.2102C24.0407 17.8935 23.3373 17.7439 22.6302 17.7757C21.9232 17.8074 21.236 18.0195 20.634 18.3917C20.032 18.7639 19.5353 19.2839 19.1909 19.9022C18.8465 20.5206 18.666 21.2167 18.6665 21.9245V43.0756C18.666 43.7834 18.8465 44.4795 19.1909 45.0978C19.5353 45.7162 20.032 46.2362 20.634 46.6084C21.236 46.9806 21.9232 47.1926 22.6302 47.2244C23.3373 47.2562 24.0407 47.1066 24.6736 46.7899L47.0629 35.5918C47.6366 35.3043 48.1189 34.8628 48.456 34.3168C48.7931 33.7708 48.9716 33.1417 48.9716 32.5C48.9716 31.8583 48.7931 31.2293 48.456 30.6833C48.1189 30.1373 47.6366 29.6958 47.0629 29.4083Z" stroke="#79B900" stroke-width="2" stroke-linecap="round" stroke-linejoin="round"/>
<path d="M32.5 63.625C49.6899 63.625 63.625 49.6899 63.625 32.5C63.625 15.3101 49.6899 1.375 32.5 1.375C15.3101 1.375 1.375 15.3101 1.375 32.5C1.375 49.6899 15.3101 63.625 32.5 63.625Z" stroke="#79B900" stroke-width="2"/>
</svg>
